<svg xmlns="http://www.w3.org/2000/svg" xmlns:xlink="http://www.w3.org/1999/xlink" viewBox="0,0,256,256" width="256px" height="256px"><g transform=""><g fill="#76aec9" fill-rule="nonzero" stroke="none" stroke-width="1" stroke-linecap="butt" stroke-linejoin="miter" stroke-miterlimit="10" stroke-dasharray="" stroke-dashoffset="0" font-family="none" font-weight="none" font-size="none" text-anchor="none" style="mix-blend-mode: normal"><path d="M37.12,256c-20.50081,0 -37.12,-16.61919 -37.12,-37.12v-181.76c0,-20.50081 16.61919,-37.12 37.12,-37.12h181.76c20.50081,0 37.12,16.61919 37.12,37.12v181.76c0,20.50081 -16.61919,37.12 -37.12,37.12z" id="shape"></path></g><g fill="none" fill-rule="nonzero" stroke="none" stroke-width="1" stroke-linecap="butt" stroke-linejoin="miter" stroke-miterlimit="10" stroke-dasharray="" stroke-dashoffset="0" font-family="none" font-weight="none" font-size="none" text-anchor="none" style="mix-blend-mode: normal"><g transform="scale(4,4)"><path d="M31,3c-15.46397,0 -28,12.53603 -28,28c0,15.46397 12.53603,28 28,28c15.46397,0 28,-12.53603 28,-28c0,-15.46397 -12.53603,-28 -28,-28z" fill="#9fe6e3"></path><path d="M12.71,52.29c2.65046,2.52102 5.76921,4.49826 9.18,5.82l34.11,-34.11v-6.43c-1.05621,-1.75012 -2.30024,-3.37976 -3.71,-4.86zM10.76,50.24l39.24,-39.24h-6l-35.78,35.78c0.75715,1.21645 1.6063,2.37316 2.54,3.46zM7.79,43.21l33.21,-33.21l-3,-2l-31.64,31.64c0.39372,1.22157 0.87153,2.41442 1.43,3.57z" fill="#bef6ff"></path><path d="M31,3c-15.46397,0 -28,12.53603 -28,28c0,15.46397 12.53603,28 28,28c15.46397,0 28,-12.53603 28,-28c0,-15.46397 -12.53603,-28 -28,-28zM31,53c-9.89151,0.00157 -18.56791,-6.59855 -21.20639,-16.13167c-2.63848,-9.53312 1.40975,-19.65504 9.89448,-24.73947c8.48473,-5.08442 19.31956,-3.88108 26.48191,2.94114l0.68,0.67c0.26,0.26667 0.51,0.54 0.75,0.82c5.65876,6.50435 6.99678,15.71456 3.42275,23.56022c-3.57404,7.84566 -11.40137,12.88065 -20.02275,12.87978z" fill="#5aff9f"></path><path d="M31,53c-12.15026,0 -22,-9.84974 -22,-22h-1.66c-1.18747,-0.00401 -2.31534,0.51979 -3.07839,1.42965c-0.76305,0.90987 -1.08239,2.11173 -0.87161,3.28035c2.28563,13.46288 13.94948,23.31343 27.605,23.31343c13.65552,0 25.31937,-9.85054 27.605,-23.31343c0.21047,-1.1669 -0.10762,-2.36703 -0.86841,-3.2765c-0.76079,-0.90947 -1.88587,-1.43454 -3.07159,-1.4335h-1.66c0,12.15026 -9.84974,22 -22,22z" fill="#56c971"></path><path d="M31,2c-16.01626,0 -29,12.98374 -29,29c0,16.01626 12.98374,29 29,29c16.01626,0 29,-12.98374 29,-29c0,-16.01626 -12.98374,-29 -29,-29zM31,58c-14.91169,0 -27,-12.08831 -27,-27c0,-14.91169 12.08831,-27 27,-27c14.91169,0 27,12.08831 27,27c0,14.91169 -12.08831,27 -27,27z" fill="#785988"></path><path d="M31,18c0.55228,0 1,-0.44772 1,-1v-2c0,-0.55228 -0.44772,-1 -1,-1c-0.55228,0 -1,0.44772 -1,1v2c0,0.55228 0.44772,1 1,1z" fill="#ee3b6e"></path><path d="M15,30c-0.55228,0 -1,0.44772 -1,1c0,0.55228 0.44772,1 1,1h2c0.55228,0 1,-0.44772 1,-1c0,-0.55228 -0.44772,-1 -1,-1z" fill="#785988"></path><path d="M48,31c0,-0.55228 -0.44772,-1 -1,-1h-2c-0.55228,0 -1,0.44772 -1,1c0,0.55228 0.44772,1 1,1h2c0.55228,0 1,-0.44772 1,-1z" fill="#ee3b6e"></path><path d="M30,45v2c0,0.55228 0.44772,1 1,1c0.55228,0 1,-0.44772 1,-1v-2c0,-0.55228 -0.44772,-1 -1,-1c-0.55228,0 -1,0.44772 -1,1z" fill="#785988"></path><path d="M35.87,18.95c0.51085,0.20599 1.0921,-0.03992 1.3,-0.55l0.75,-1.85c0.1682,-0.50103 -0.08252,-1.04643 -0.5723,-1.24499c-0.48979,-0.19856 -1.04952,0.01828 -1.2777,0.49499l-0.75,1.85c-0.20599,0.51085 0.03992,1.0921 0.55,1.3zM45.46,37.92c0.50103,0.1682 1.04643,-0.08252 1.24499,-0.5723c0.19856,-0.48979 -0.01828,-1.04952 -0.49499,-1.2777l-1.85,-0.75c-0.50103,-0.1682 -1.04643,0.08252 -1.24499,0.5723c-0.19856,0.48979 0.01828,1.04952 0.49499,1.2777zM40,20.23c-0.38384,0.39765 -0.37265,1.03116 0.025,1.415c0.39765,0.38384 1.03116,0.37265 1.415,-0.025l1.39,-1.44c0.30981,-0.40351 0.2673,-0.9753 -0.09876,-1.32856c-0.36606,-0.35326 -0.939,-0.3754 -1.33124,-0.05144zM41.77,40c-0.39004,-0.38772 -1.01996,-0.38772 -1.41,0c-0.13993,0.15588 -0.22737,0.35176 -0.25,0.56c-0.17545,0.37656 -0.09982,0.82237 0.19,1.12l1.31,1.32c0.3876,0.37465 1.0024,0.37465 1.39,0c0.03957,-0.09496 0.11504,-0.17043 0.21,-0.21c0.38772,-0.39004 0.38772,-1.01996 0,-1.41zM45.21,23.58l-1.83,0.81c-0.50534,0.22368 -0.73368,0.81466 -0.51,1.32c0.22368,0.50534 0.81466,0.73368 1.32,0.51l1.81,-0.81c0.50534,-0.22368 0.73368,-0.81466 0.51,-1.32c-0.22368,-0.50534 -0.81466,-0.73368 -1.32,-0.51z" fill="#ee3b6e"></path><path d="M38.5,39.5c0.40627,0.00236 0.77358,-0.2413 0.92937,-0.61652c0.15579,-0.37521 0.06909,-0.80739 -0.21937,-1.09348l-6.28,-6.28c0.24722,-0.86921 -0.13845,-1.794 -0.93,-2.23v-8.28c0,-0.55228 -0.44772,-1 -1,-1c-0.55228,0 -1,0.44772 -1,1v8.28c-0.83767,0.51418 -1.17757,1.56082 -0.80184,2.46906c0.37574,0.90824 1.35573,1.40884 2.31184,1.18094l6.28,6.28c0.18872,0.18719 0.4442,0.29154 0.71,0.29z" fill="#785988"></path><path d="M31,54c-8.60883,-0.01735 -16.48723,-4.84085 -20.41722,-12.50033c-3.92999,-7.65947 -3.25352,-16.87239 1.75311,-23.87567c5.00662,-7.00329 13.50508,-10.6243 22.02411,-9.384c0.55228,0.08008 0.93508,0.59272 0.855,1.145c-0.08008,0.55228 -0.59272,0.93508 -1.145,0.855c-1.01619,-0.15403 -2.04221,-0.23424 -3.07,-0.24c-10.25274,0.0171 -18.99435,7.43524 -20.67941,17.54858c-1.68506,10.11334 4.17908,19.96506 13.8724,23.30552c9.69331,3.34047 20.38178,-0.80697 25.28496,-9.81129c4.90318,-9.00433 2.58754,-20.23296 -5.47795,-26.56281c-0.43354,-0.34242 -0.50742,-0.97146 -0.165,-1.405c0.34242,-0.43354 0.97146,-0.50742 1.405,-0.165c7.71808,6.06007 10.74131,16.34947 7.52807,25.62138c-3.21324,9.27191 -11.95517,15.48402 -21.76807,15.46862z" fill="#785988"></path><path d="M41,12.4c-0.15654,-0.00094 -0.31068,-0.03862 -0.45,-0.11c-0.74931,-0.37922 -1.5207,-0.71316 -2.31,-1c-0.51915,-0.19054 -0.78554,-0.76585 -0.595,-1.285c0.19054,-0.51915 0.76585,-0.78554 1.285,-0.595c0.86481,0.31897 1.70967,0.68964 2.53,1.11c0.40065,0.21613 0.60477,0.67559 0.49657,1.11778c-0.10819,0.44219 -0.50139,0.7555 -0.95657,0.76222z" fill="#785988"></path></g></g></g></svg>